<mxfile host="app.diagrams.net" modified="2024-03-25T19:53:29.071Z" agent="Mozilla/5.0 (Macintosh; Intel Mac OS X 10_15_7) AppleWebKit/537.36 (KHTML, like Gecko) Chrome/123.0.0.0 Safari/537.36" version="24.1.0" etag="h-4WY-C6T8fOTeDD9tAR" type="github">
  <diagram name="Page-1" id="FiO6hS_eljK_m4C8cdq7">
    <mxGraphModel>
      <root>
        <mxCell id="0" />
        <mxCell id="1" parent="0" />
      </root>
    </mxGraphModel>
  </diagram>
</mxfile>
